<svg width="25" height="25" viewBox="0 0 25 25" fill="none" xmlns="http://www.w3.org/2000/svg">
<path d="M15.5778 13.6907L19.0345 15.2619C19.927 15.6676 20.5 16.5575 20.5 17.5378V18.25C20.5 19.6307 19.3807 20.75 18 20.75H7C5.61929 20.75 4.5 19.6307 4.5 18.25V17.5378C4.5 16.5575 5.07301 15.6676 5.96549 15.2619L9.42216 13.6907C8.25209 12.7755 7.5 11.3506 7.5 9.75C7.5 6.98858 9.73858 4.75 12.5 4.75C15.2614 4.75 17.5 6.98858 17.5 9.75C17.5 11.3506 16.7479 12.7755 15.5778 13.6907ZM10.4613 14.3168L6.3793 16.1723C5.8438 16.4157 5.5 16.9496 5.5 17.5378V18.25C5.5 19.0784 6.17157 19.75 7 19.75H18C18.8284 19.75 19.5 19.0784 19.5 18.25V17.5378C19.5 16.9496 19.1562 16.4157 18.6207 16.1723L14.5387 14.3168C13.9161 14.5952 13.2261 14.75 12.5 14.75C11.7739 14.75 11.0839 14.5952 10.4613 14.3168ZM12.5 13.75C14.7091 13.75 16.5 11.9591 16.5 9.75C16.5 7.54086 14.7091 5.75 12.5 5.75C10.2909 5.75 8.5 7.54086 8.5 9.75C8.5 11.9591 10.2909 13.75 12.5 13.75Z" fill="#001736"/>
</svg>
